<svg width="273" height="43" viewBox="0 0 273 43" fill="none" xmlns="http://www.w3.org/2000/svg">
    <g filter="url(#filter0_d_202_500)">
    <mask id="path-1-outside-1_202_500" maskUnits="userSpaceOnUse" x="63" y="8" width="207" height="27" fill="black">
    <rect fill="white" x="63" y="8" width="207" height="27"/>
    <path d="M64.5227 9.72727H70.5909L77 25.3636H77.2727L83.6818 9.72727H89.75V33H84.9773V17.8523H84.7841L78.7614 32.8864H75.5114L69.4886 17.7955H69.2955V33H64.5227V9.72727ZM101.899 33.3409C100.134 33.3409 98.6078 32.9659 97.3199 32.2159C96.0396 31.4583 95.051 30.4053 94.354 29.0568C93.657 27.7008 93.3085 26.1288 93.3085 24.3409C93.3085 22.5379 93.657 20.9621 94.354 19.6136C95.051 18.2576 96.0396 17.2045 97.3199 16.4545C98.6078 15.697 100.134 15.3182 101.899 15.3182C103.665 15.3182 105.187 15.697 106.468 16.4545C107.755 17.2045 108.748 18.2576 109.445 19.6136C110.142 20.9621 110.49 22.5379 110.49 24.3409C110.49 26.1288 110.142 27.7008 109.445 29.0568C108.748 30.4053 107.755 31.4583 106.468 32.2159C105.187 32.9659 103.665 33.3409 101.899 33.3409ZM101.922 29.5909C102.725 29.5909 103.396 29.3636 103.934 28.9091C104.471 28.447 104.877 27.8182 105.149 27.0227C105.43 26.2273 105.57 25.322 105.57 24.3068C105.57 23.2917 105.43 22.3864 105.149 21.5909C104.877 20.7955 104.471 20.1667 103.934 19.7045C103.396 19.2424 102.725 19.0114 101.922 19.0114C101.112 19.0114 100.43 19.2424 99.8767 19.7045C99.3313 20.1667 98.9184 20.7955 98.6381 21.5909C98.3653 22.3864 98.229 23.2917 98.229 24.3068C98.229 25.322 98.3653 26.2273 98.6381 27.0227C98.9184 27.8182 99.3313 28.447 99.8767 28.9091C100.43 29.3636 101.112 29.5909 101.922 29.5909ZM121.824 33.3409C120.037 33.3409 118.499 32.9621 117.211 32.2045C115.93 31.4394 114.946 30.3788 114.256 29.0227C113.574 27.6667 113.234 26.1061 113.234 24.3409C113.234 22.553 113.578 20.9848 114.268 19.6364C114.965 18.2803 115.953 17.2235 117.234 16.4659C118.514 15.7008 120.037 15.3182 121.802 15.3182C123.324 15.3182 124.658 15.5947 125.802 16.1477C126.946 16.7008 127.851 17.4773 128.518 18.4773C129.184 19.4773 129.552 20.6515 129.62 22H125.052C124.923 21.1288 124.582 20.428 124.029 19.8977C123.484 19.3598 122.768 19.0909 121.881 19.0909C121.131 19.0909 120.476 19.2955 119.915 19.7045C119.362 20.1061 118.93 20.6932 118.62 21.4659C118.309 22.2386 118.154 23.1742 118.154 24.2727C118.154 25.3864 118.305 26.3333 118.609 27.1136C118.919 27.8939 119.355 28.4886 119.915 28.8977C120.476 29.3068 121.131 29.5114 121.881 29.5114C122.434 29.5114 122.93 29.3977 123.37 29.1705C123.817 28.9432 124.184 28.6136 124.472 28.1818C124.768 27.7424 124.961 27.2159 125.052 26.6023H129.62C129.544 27.9356 129.18 29.1098 128.529 30.125C127.885 31.1326 126.995 31.9205 125.859 32.4886C124.722 33.0568 123.377 33.3409 121.824 33.3409ZM137.406 27.9773L137.417 22.1705H138.122L143.713 15.5455H149.269L141.758 24.3182H140.61L137.406 27.9773ZM133.019 33V9.72727H137.86V33H133.019ZM143.928 33L138.792 25.3977L142.019 21.9773L149.599 33H143.928ZM159.741 9.72727H165.81L172.219 25.3636H172.491L178.901 9.72727H184.969V33H180.196V17.8523H180.003L173.98 32.8864H170.73L164.707 17.7955H164.514V33H159.741V9.72727ZM194.209 33.3295C193.095 33.3295 192.103 33.1364 191.232 32.75C190.361 32.3561 189.671 31.7765 189.164 31.0114C188.664 30.2386 188.414 29.2765 188.414 28.125C188.414 27.1553 188.592 26.3409 188.948 25.6818C189.304 25.0227 189.789 24.4924 190.402 24.0909C191.016 23.6894 191.713 23.3864 192.493 23.1818C193.281 22.9773 194.107 22.8333 194.97 22.75C195.986 22.6439 196.804 22.5455 197.425 22.4545C198.046 22.3561 198.497 22.2121 198.777 22.0227C199.058 21.8333 199.198 21.553 199.198 21.1818V21.1136C199.198 20.3939 198.97 19.8371 198.516 19.4432C198.069 19.0492 197.433 18.8523 196.607 18.8523C195.736 18.8523 195.042 19.0455 194.527 19.4318C194.012 19.8106 193.671 20.2879 193.505 20.8636L189.027 20.5C189.255 19.4394 189.702 18.5227 190.368 17.75C191.035 16.9697 191.895 16.3712 192.948 15.9545C194.008 15.5303 195.236 15.3182 196.63 15.3182C197.599 15.3182 198.527 15.4318 199.414 15.6591C200.308 15.8864 201.099 16.2386 201.789 16.7159C202.486 17.1932 203.035 17.8068 203.436 18.5568C203.838 19.2992 204.039 20.1894 204.039 21.2273V33H199.448V30.5795H199.311C199.031 31.125 198.656 31.6061 198.186 32.0227C197.717 32.4318 197.152 32.7538 196.493 32.9886C195.834 33.2159 195.073 33.3295 194.209 33.3295ZM195.595 29.9886C196.308 29.9886 196.936 29.8485 197.482 29.5682C198.027 29.2803 198.455 28.8939 198.766 28.4091C199.077 27.9242 199.232 27.375 199.232 26.7614V24.9091C199.08 25.0076 198.872 25.0985 198.607 25.1818C198.349 25.2576 198.058 25.3295 197.732 25.3977C197.406 25.4583 197.08 25.5152 196.755 25.5682C196.429 25.6136 196.133 25.6553 195.868 25.6932C195.3 25.7765 194.804 25.9091 194.38 26.0909C193.955 26.2727 193.626 26.5189 193.391 26.8295C193.156 27.1326 193.039 27.5114 193.039 27.9659C193.039 28.625 193.277 29.1288 193.755 29.4773C194.239 29.8182 194.853 29.9886 195.595 29.9886ZM222.617 20.5227L218.185 20.7955C218.109 20.4167 217.947 20.0758 217.697 19.7727C217.447 19.4621 217.117 19.2159 216.708 19.0341C216.306 18.8447 215.825 18.75 215.265 18.75C214.515 18.75 213.882 18.9091 213.367 19.2273C212.852 19.5379 212.594 19.9545 212.594 20.4773C212.594 20.8939 212.761 21.2462 213.094 21.5341C213.428 21.822 214 22.053 214.81 22.2273L217.969 22.8636C219.666 23.2121 220.931 23.7727 221.765 24.5455C222.598 25.3182 223.015 26.3333 223.015 27.5909C223.015 28.7348 222.678 29.7386 222.003 30.6023C221.337 31.4659 220.42 32.1402 219.253 32.625C218.094 33.1023 216.757 33.3409 215.242 33.3409C212.931 33.3409 211.091 32.8598 209.719 31.8977C208.356 30.928 207.556 29.6098 207.322 27.9432L212.083 27.6932C212.227 28.3977 212.575 28.9356 213.128 29.3068C213.681 29.6705 214.39 29.8523 215.253 29.8523C216.102 29.8523 216.784 29.6894 217.299 29.3636C217.822 29.0303 218.087 28.6023 218.094 28.0795C218.087 27.6402 217.901 27.2803 217.538 27C217.174 26.7121 216.613 26.4924 215.856 26.3409L212.833 25.7386C211.128 25.3977 209.859 24.8068 209.026 23.9659C208.2 23.125 207.788 22.053 207.788 20.75C207.788 19.6288 208.091 18.6629 208.697 17.8523C209.31 17.0417 210.17 16.4167 211.276 15.9773C212.39 15.5379 213.693 15.3182 215.185 15.3182C217.39 15.3182 219.125 15.7841 220.39 16.7159C221.663 17.6477 222.405 18.9167 222.617 20.5227ZM235.647 15.5455V19.1818H225.136V15.5455H235.647ZM227.522 11.3636H232.363V27.6364C232.363 28.0833 232.431 28.4318 232.568 28.6818C232.704 28.9242 232.893 29.0947 233.136 29.1932C233.386 29.2917 233.674 29.3409 233.999 29.3409C234.227 29.3409 234.454 29.322 234.681 29.2841C234.909 29.2386 235.083 29.2045 235.204 29.1818L235.965 32.7841C235.723 32.8598 235.382 32.947 234.943 33.0455C234.503 33.1515 233.969 33.2159 233.34 33.2386C232.174 33.2841 231.151 33.1288 230.272 32.7727C229.401 32.4167 228.723 31.8636 228.238 31.1136C227.753 30.3636 227.515 29.4167 227.522 28.2727V11.3636ZM246.868 33.3409C245.072 33.3409 243.527 32.9773 242.231 32.25C240.943 31.5152 239.951 30.4773 239.254 29.1364C238.557 27.7879 238.209 26.1932 238.209 24.3523C238.209 22.5568 238.557 20.9811 239.254 19.625C239.951 18.2689 240.932 17.2121 242.197 16.4545C243.47 15.697 244.962 15.3182 246.674 15.3182C247.826 15.3182 248.898 15.5038 249.89 15.875C250.89 16.2386 251.762 16.7879 252.504 17.5227C253.254 18.2576 253.837 19.1818 254.254 20.2955C254.671 21.4015 254.879 22.697 254.879 24.1818V25.5114H240.14V22.5114H250.322C250.322 21.8144 250.171 21.197 249.868 20.6591C249.565 20.1212 249.144 19.7008 248.606 19.3977C248.076 19.0871 247.459 18.9318 246.754 18.9318C246.019 18.9318 245.368 19.1023 244.799 19.4432C244.239 19.7765 243.799 20.2273 243.481 20.7955C243.163 21.3561 243 21.9811 242.993 22.6705V25.5227C242.993 26.3864 243.152 27.1326 243.47 27.7614C243.796 28.3902 244.254 28.875 244.845 29.2159C245.436 29.5568 246.137 29.7273 246.947 29.7273C247.485 29.7273 247.977 29.6515 248.424 29.5C248.871 29.3485 249.254 29.1212 249.572 28.8182C249.89 28.5152 250.133 28.1439 250.299 27.7045L254.777 28C254.549 29.0758 254.084 30.0152 253.379 30.8182C252.682 31.6136 251.78 32.2348 250.674 32.6818C249.576 33.1212 248.307 33.3409 246.868 33.3409ZM258.338 33V15.5455H263.031V18.5909H263.213C263.531 17.5076 264.065 16.6894 264.815 16.1364C265.565 15.5758 266.429 15.2955 267.406 15.2955C267.649 15.2955 267.91 15.3106 268.19 15.3409C268.471 15.3712 268.717 15.4129 268.929 15.4659V19.7614C268.702 19.6932 268.387 19.6326 267.986 19.5795C267.584 19.5265 267.217 19.5 266.884 19.5C266.171 19.5 265.535 19.6553 264.974 19.9659C264.421 20.2689 263.982 20.6932 263.656 21.2386C263.338 21.7841 263.179 22.4129 263.179 23.125V33H258.338Z"/>
    </mask>
    <path d="M64.5227 9.72727H70.5909L77 25.3636H77.2727L83.6818 9.72727H89.75V33H84.9773V17.8523H84.7841L78.7614 32.8864H75.5114L69.4886 17.7955H69.2955V33H64.5227V9.72727ZM101.899 33.3409C100.134 33.3409 98.6078 32.9659 97.3199 32.2159C96.0396 31.4583 95.051 30.4053 94.354 29.0568C93.657 27.7008 93.3085 26.1288 93.3085 24.3409C93.3085 22.5379 93.657 20.9621 94.354 19.6136C95.051 18.2576 96.0396 17.2045 97.3199 16.4545C98.6078 15.697 100.134 15.3182 101.899 15.3182C103.665 15.3182 105.187 15.697 106.468 16.4545C107.755 17.2045 108.748 18.2576 109.445 19.6136C110.142 20.9621 110.49 22.5379 110.49 24.3409C110.49 26.1288 110.142 27.7008 109.445 29.0568C108.748 30.4053 107.755 31.4583 106.468 32.2159C105.187 32.9659 103.665 33.3409 101.899 33.3409ZM101.922 29.5909C102.725 29.5909 103.396 29.3636 103.934 28.9091C104.471 28.447 104.877 27.8182 105.149 27.0227C105.43 26.2273 105.57 25.322 105.57 24.3068C105.57 23.2917 105.43 22.3864 105.149 21.5909C104.877 20.7955 104.471 20.1667 103.934 19.7045C103.396 19.2424 102.725 19.0114 101.922 19.0114C101.112 19.0114 100.43 19.2424 99.8767 19.7045C99.3313 20.1667 98.9184 20.7955 98.6381 21.5909C98.3653 22.3864 98.229 23.2917 98.229 24.3068C98.229 25.322 98.3653 26.2273 98.6381 27.0227C98.9184 27.8182 99.3313 28.447 99.8767 28.9091C100.43 29.3636 101.112 29.5909 101.922 29.5909ZM121.824 33.3409C120.037 33.3409 118.499 32.9621 117.211 32.2045C115.93 31.4394 114.946 30.3788 114.256 29.0227C113.574 27.6667 113.234 26.1061 113.234 24.3409C113.234 22.553 113.578 20.9848 114.268 19.6364C114.965 18.2803 115.953 17.2235 117.234 16.4659C118.514 15.7008 120.037 15.3182 121.802 15.3182C123.324 15.3182 124.658 15.5947 125.802 16.1477C126.946 16.7008 127.851 17.4773 128.518 18.4773C129.184 19.4773 129.552 20.6515 129.62 22H125.052C124.923 21.1288 124.582 20.428 124.029 19.8977C123.484 19.3598 122.768 19.0909 121.881 19.0909C121.131 19.0909 120.476 19.2955 119.915 19.7045C119.362 20.1061 118.93 20.6932 118.62 21.4659C118.309 22.2386 118.154 23.1742 118.154 24.2727C118.154 25.3864 118.305 26.3333 118.609 27.1136C118.919 27.8939 119.355 28.4886 119.915 28.8977C120.476 29.3068 121.131 29.5114 121.881 29.5114C122.434 29.5114 122.93 29.3977 123.37 29.1705C123.817 28.9432 124.184 28.6136 124.472 28.1818C124.768 27.7424 124.961 27.2159 125.052 26.6023H129.62C129.544 27.9356 129.18 29.1098 128.529 30.125C127.885 31.1326 126.995 31.9205 125.859 32.4886C124.722 33.0568 123.377 33.3409 121.824 33.3409ZM137.406 27.9773L137.417 22.1705H138.122L143.713 15.5455H149.269L141.758 24.3182H140.61L137.406 27.9773ZM133.019 33V9.72727H137.86V33H133.019ZM143.928 33L138.792 25.3977L142.019 21.9773L149.599 33H143.928ZM159.741 9.72727H165.81L172.219 25.3636H172.491L178.901 9.72727H184.969V33H180.196V17.8523H180.003L173.98 32.8864H170.73L164.707 17.7955H164.514V33H159.741V9.72727ZM194.209 33.3295C193.095 33.3295 192.103 33.1364 191.232 32.75C190.361 32.3561 189.671 31.7765 189.164 31.0114C188.664 30.2386 188.414 29.2765 188.414 28.125C188.414 27.1553 188.592 26.3409 188.948 25.6818C189.304 25.0227 189.789 24.4924 190.402 24.0909C191.016 23.6894 191.713 23.3864 192.493 23.1818C193.281 22.9773 194.107 22.8333 194.97 22.75C195.986 22.6439 196.804 22.5455 197.425 22.4545C198.046 22.3561 198.497 22.2121 198.777 22.0227C199.058 21.8333 199.198 21.553 199.198 21.1818V21.1136C199.198 20.3939 198.97 19.8371 198.516 19.4432C198.069 19.0492 197.433 18.8523 196.607 18.8523C195.736 18.8523 195.042 19.0455 194.527 19.4318C194.012 19.8106 193.671 20.2879 193.505 20.8636L189.027 20.5C189.255 19.4394 189.702 18.5227 190.368 17.75C191.035 16.9697 191.895 16.3712 192.948 15.9545C194.008 15.5303 195.236 15.3182 196.63 15.3182C197.599 15.3182 198.527 15.4318 199.414 15.6591C200.308 15.8864 201.099 16.2386 201.789 16.7159C202.486 17.1932 203.035 17.8068 203.436 18.5568C203.838 19.2992 204.039 20.1894 204.039 21.2273V33H199.448V30.5795H199.311C199.031 31.125 198.656 31.6061 198.186 32.0227C197.717 32.4318 197.152 32.7538 196.493 32.9886C195.834 33.2159 195.073 33.3295 194.209 33.3295ZM195.595 29.9886C196.308 29.9886 196.936 29.8485 197.482 29.5682C198.027 29.2803 198.455 28.8939 198.766 28.4091C199.077 27.9242 199.232 27.375 199.232 26.7614V24.9091C199.08 25.0076 198.872 25.0985 198.607 25.1818C198.349 25.2576 198.058 25.3295 197.732 25.3977C197.406 25.4583 197.08 25.5152 196.755 25.5682C196.429 25.6136 196.133 25.6553 195.868 25.6932C195.3 25.7765 194.804 25.9091 194.38 26.0909C193.955 26.2727 193.626 26.5189 193.391 26.8295C193.156 27.1326 193.039 27.5114 193.039 27.9659C193.039 28.625 193.277 29.1288 193.755 29.4773C194.239 29.8182 194.853 29.9886 195.595 29.9886ZM222.617 20.5227L218.185 20.7955C218.109 20.4167 217.947 20.0758 217.697 19.7727C217.447 19.4621 217.117 19.2159 216.708 19.0341C216.306 18.8447 215.825 18.75 215.265 18.75C214.515 18.75 213.882 18.9091 213.367 19.2273C212.852 19.5379 212.594 19.9545 212.594 20.4773C212.594 20.8939 212.761 21.2462 213.094 21.5341C213.428 21.822 214 22.053 214.81 22.2273L217.969 22.8636C219.666 23.2121 220.931 23.7727 221.765 24.5455C222.598 25.3182 223.015 26.3333 223.015 27.5909C223.015 28.7348 222.678 29.7386 222.003 30.6023C221.337 31.4659 220.42 32.1402 219.253 32.625C218.094 33.1023 216.757 33.3409 215.242 33.3409C212.931 33.3409 211.091 32.8598 209.719 31.8977C208.356 30.928 207.556 29.6098 207.322 27.9432L212.083 27.6932C212.227 28.3977 212.575 28.9356 213.128 29.3068C213.681 29.6705 214.39 29.8523 215.253 29.8523C216.102 29.8523 216.784 29.6894 217.299 29.3636C217.822 29.0303 218.087 28.6023 218.094 28.0795C218.087 27.6402 217.901 27.2803 217.538 27C217.174 26.7121 216.613 26.4924 215.856 26.3409L212.833 25.7386C211.128 25.3977 209.859 24.8068 209.026 23.9659C208.2 23.125 207.788 22.053 207.788 20.75C207.788 19.6288 208.091 18.6629 208.697 17.8523C209.31 17.0417 210.17 16.4167 211.276 15.9773C212.39 15.5379 213.693 15.3182 215.185 15.3182C217.39 15.3182 219.125 15.7841 220.39 16.7159C221.663 17.6477 222.405 18.9167 222.617 20.5227ZM235.647 15.5455V19.1818H225.136V15.5455H235.647ZM227.522 11.3636H232.363V27.6364C232.363 28.0833 232.431 28.4318 232.568 28.6818C232.704 28.9242 232.893 29.0947 233.136 29.1932C233.386 29.2917 233.674 29.3409 233.999 29.3409C234.227 29.3409 234.454 29.322 234.681 29.2841C234.909 29.2386 235.083 29.2045 235.204 29.1818L235.965 32.7841C235.723 32.8598 235.382 32.947 234.943 33.0455C234.503 33.1515 233.969 33.2159 233.34 33.2386C232.174 33.2841 231.151 33.1288 230.272 32.7727C229.401 32.4167 228.723 31.8636 228.238 31.1136C227.753 30.3636 227.515 29.4167 227.522 28.2727V11.3636ZM246.868 33.3409C245.072 33.3409 243.527 32.9773 242.231 32.25C240.943 31.5152 239.951 30.4773 239.254 29.1364C238.557 27.7879 238.209 26.1932 238.209 24.3523C238.209 22.5568 238.557 20.9811 239.254 19.625C239.951 18.2689 240.932 17.2121 242.197 16.4545C243.47 15.697 244.962 15.3182 246.674 15.3182C247.826 15.3182 248.898 15.5038 249.89 15.875C250.89 16.2386 251.762 16.7879 252.504 17.5227C253.254 18.2576 253.837 19.1818 254.254 20.2955C254.671 21.4015 254.879 22.697 254.879 24.1818V25.5114H240.14V22.5114H250.322C250.322 21.8144 250.171 21.197 249.868 20.6591C249.565 20.1212 249.144 19.7008 248.606 19.3977C248.076 19.0871 247.459 18.9318 246.754 18.9318C246.019 18.9318 245.368 19.1023 244.799 19.4432C244.239 19.7765 243.799 20.2273 243.481 20.7955C243.163 21.3561 243 21.9811 242.993 22.6705V25.5227C242.993 26.3864 243.152 27.1326 243.47 27.7614C243.796 28.3902 244.254 28.875 244.845 29.2159C245.436 29.5568 246.137 29.7273 246.947 29.7273C247.485 29.7273 247.977 29.6515 248.424 29.5C248.871 29.3485 249.254 29.1212 249.572 28.8182C249.89 28.5152 250.133 28.1439 250.299 27.7045L254.777 28C254.549 29.0758 254.084 30.0152 253.379 30.8182C252.682 31.6136 251.78 32.2348 250.674 32.6818C249.576 33.1212 248.307 33.3409 246.868 33.3409ZM258.338 33V15.5455H263.031V18.5909H263.213C263.531 17.5076 264.065 16.6894 264.815 16.1364C265.565 15.5758 266.429 15.2955 267.406 15.2955C267.649 15.2955 267.91 15.3106 268.19 15.3409C268.471 15.3712 268.717 15.4129 268.929 15.4659V19.7614C268.702 19.6932 268.387 19.6326 267.986 19.5795C267.584 19.5265 267.217 19.5 266.884 19.5C266.171 19.5 265.535 19.6553 264.974 19.9659C264.421 20.2689 263.982 20.6932 263.656 21.2386C263.338 21.7841 263.179 22.4129 263.179 23.125V33H258.338Z" fill="#0BA5EC"/>
    <path d="M64.5227 9.72727V8.72727H63.5227V9.72727H64.5227ZM70.5909 9.72727L71.5162 9.34801L71.2618 8.72727H70.5909V9.72727ZM77 25.3636L76.0747 25.7429L76.3291 26.3636H77V25.3636ZM77.2727 25.3636V26.3636H77.9436L78.198 25.7429L77.2727 25.3636ZM83.6818 9.72727V8.72727H83.011L82.7565 9.34801L83.6818 9.72727ZM89.75 9.72727H90.75V8.72727H89.75V9.72727ZM89.75 33V34H90.75V33H89.75ZM84.9773 33H83.9773V34H84.9773V33ZM84.9773 17.8523H85.9773V16.8523H84.9773V17.8523ZM84.7841 17.8523V16.8523H84.1074L83.8558 17.4804L84.7841 17.8523ZM78.7614 32.8864V33.8864H79.438L79.6896 33.2582L78.7614 32.8864ZM75.5114 32.8864L74.5826 33.257L74.8338 33.8864H75.5114V32.8864ZM69.4886 17.7955L70.4174 17.4248L70.1662 16.7955H69.4886V17.7955ZM69.2955 17.7955V16.7955H68.2955V17.7955H69.2955ZM69.2955 33V34H70.2955V33H69.2955ZM64.5227 33H63.5227V34H64.5227V33ZM64.5227 10.7273H70.5909V8.72727H64.5227V10.7273ZM69.6656 10.1065L76.0747 25.7429L77.9253 24.9844L71.5162 9.34801L69.6656 10.1065ZM77 26.3636H77.2727V24.3636H77V26.3636ZM78.198 25.7429L84.6071 10.1065L82.7565 9.34801L76.3474 24.9844L78.198 25.7429ZM83.6818 10.7273H89.75V8.72727H83.6818V10.7273ZM88.75 9.72727V33H90.75V9.72727H88.75ZM89.75 32H84.9773V34H89.75V32ZM85.9773 33V17.8523H83.9773V33H85.9773ZM84.9773 16.8523H84.7841V18.8523H84.9773V16.8523ZM83.8558 17.4804L77.8331 32.5145L79.6896 33.2582L85.7124 18.2241L83.8558 17.4804ZM78.7614 31.8864H75.5114V33.8864H78.7614V31.8864ZM76.4401 32.5157L70.4174 17.4248L68.5599 18.1661L74.5826 33.257L76.4401 32.5157ZM69.4886 16.7955H69.2955V18.7955H69.4886V16.7955ZM68.2955 17.7955V33H70.2955V17.7955H68.2955ZM69.2955 32H64.5227V34H69.2955V32ZM65.5227 33V9.72727H63.5227V33H65.5227ZM97.3199 32.2159L96.8106 33.0766L96.8167 33.0801L97.3199 32.2159ZM94.354 29.0568L93.4646 29.5139L93.4656 29.516L94.354 29.0568ZM94.354 19.6136L95.2423 20.0728L95.2434 20.0708L94.354 19.6136ZM97.3199 16.4545L97.8253 17.3174L97.8269 17.3165L97.3199 16.4545ZM106.468 16.4545L105.958 17.3152L105.964 17.3187L106.468 16.4545ZM109.445 19.6136L108.555 20.0708L108.557 20.0728L109.445 19.6136ZM109.445 29.0568L110.333 29.516L110.334 29.5139L109.445 29.0568ZM106.468 32.2159L106.973 33.0788L106.975 33.0778L106.468 32.2159ZM103.934 28.9091L104.579 29.6729L104.585 29.6676L103.934 28.9091ZM105.149 27.0227L104.206 26.6904L104.203 26.6984L105.149 27.0227ZM105.149 21.5909L104.203 21.9152L104.206 21.9233L105.149 21.5909ZM99.8767 19.7045L99.2355 18.9372L99.2303 18.9416L99.8767 19.7045ZM98.6381 21.5909L97.6949 21.2585L97.6921 21.2666L98.6381 21.5909ZM98.6381 27.0227L97.6921 27.3471L97.6949 27.3551L98.6381 27.0227ZM99.8767 28.9091L99.2303 29.6721L99.236 29.6769L99.2417 29.6816L99.8767 28.9091ZM101.899 32.3409C100.278 32.3409 98.9322 31.9976 97.8231 31.3518L96.8167 33.0801C98.2834 33.9342 99.9903 34.3409 101.899 34.3409V32.3409ZM97.8291 31.3553C96.7138 30.6953 95.855 29.783 95.2423 28.5977L93.4656 29.516C94.2469 31.0276 95.3654 32.2213 96.8106 33.0765L97.8291 31.3553ZM95.2434 28.5997C94.6307 27.4076 94.3085 25.9972 94.3085 24.3409H92.3085C92.3085 26.2604 92.6833 27.9939 93.4646 29.5139L95.2434 28.5997ZM94.3085 24.3409C94.3085 22.6678 94.6313 21.255 95.2423 20.0728L93.4656 19.1545C92.6827 20.6692 92.3085 22.408 92.3085 24.3409H94.3085ZM95.2434 20.0708C95.856 18.8788 96.7137 17.9686 97.8253 17.3174L96.8144 15.5917C95.3655 16.4405 94.2459 17.6364 93.4646 19.1565L95.2434 20.0708ZM97.8269 17.3165C98.9353 16.6645 100.28 16.3182 101.899 16.3182V14.3182C99.9886 14.3182 98.2803 14.7294 96.8129 15.5926L97.8269 17.3165ZM101.899 16.3182C103.519 16.3182 104.859 16.6646 105.958 17.3152L106.977 15.5939C105.516 14.7294 103.81 14.3182 101.899 14.3182V16.3182ZM105.964 17.3187C107.083 17.9703 107.944 18.8803 108.555 20.0708L110.334 19.1565C109.552 17.6348 108.428 16.4388 106.971 15.5904L105.964 17.3187ZM108.557 20.0728C109.168 21.255 109.49 22.6678 109.49 24.3409H111.49C111.49 22.408 111.116 20.6692 110.333 19.1545L108.557 20.0728ZM109.49 24.3409C109.49 25.9972 109.168 27.4076 108.555 28.5997L110.334 29.5139C111.116 27.9939 111.49 26.2604 111.49 24.3409H109.49ZM108.557 28.5977C107.945 29.7814 107.083 30.6936 105.961 31.354L106.975 33.0778C108.428 32.2231 109.551 31.0292 110.333 29.516L108.557 28.5977ZM105.962 31.3531C104.862 31.9976 103.521 32.3409 101.899 32.3409V34.3409C103.808 34.3409 105.513 33.9343 106.973 33.0788L105.962 31.3531ZM101.922 30.5909C102.926 30.5909 103.835 30.3012 104.579 29.6729L103.288 28.1453C102.956 28.4261 102.524 28.5909 101.922 28.5909V30.5909ZM104.585 29.6676C105.281 29.0696 105.776 28.2794 106.095 27.3471L104.203 26.6984C103.978 27.357 103.662 27.8243 103.282 28.1506L104.585 29.6676ZM106.093 27.3551C106.417 26.4336 106.57 25.4128 106.57 24.3068H104.57C104.57 25.2311 104.442 26.0209 104.206 26.6904L106.093 27.3551ZM106.57 24.3068C106.57 23.2008 106.417 22.18 106.093 21.2586L104.206 21.9233C104.442 22.5927 104.57 23.3825 104.57 24.3068H106.57ZM106.095 21.2666C105.776 20.3343 105.281 19.544 104.585 18.946L103.282 20.463C103.662 20.7893 103.978 21.2566 104.203 21.9152L106.095 21.2666ZM104.585 18.946C103.842 18.3074 102.931 18.0114 101.922 18.0114V20.0114C102.52 20.0114 102.949 20.1774 103.282 20.463L104.585 18.946ZM101.922 18.0114C100.908 18.0114 99.9909 18.306 99.2355 18.9372L100.518 20.4719C100.869 20.1789 101.315 20.0114 101.922 20.0114V18.0114ZM99.2303 18.9416C98.5269 19.5375 98.0235 20.3261 97.6949 21.2586L99.5812 21.9233C99.8132 21.2648 100.136 20.7958 100.523 20.4675L99.2303 18.9416ZM97.6921 21.2666C97.3771 22.1855 97.229 23.2035 97.229 24.3068H99.229C99.229 23.3799 99.3536 22.5872 99.584 21.9152L97.6921 21.2666ZM97.229 24.3068C97.229 25.4102 97.3771 26.4281 97.6921 27.3471L99.584 26.6984C99.3536 26.0264 99.229 25.2338 99.229 24.3068H97.229ZM97.6949 27.3551C98.0235 28.2876 98.5269 29.0762 99.2303 29.6721L100.523 28.1461C100.136 27.8178 99.8132 27.3488 99.5812 26.6904L97.6949 27.3551ZM99.2417 29.6816C99.9973 30.3026 100.912 30.5909 101.922 30.5909V28.5909C101.311 28.5909 100.862 28.4247 100.512 28.1366L99.2417 29.6816ZM117.211 32.2045L116.698 33.063L116.704 33.0665L117.211 32.2045ZM114.256 29.0227L113.363 29.4719L113.365 29.4759L114.256 29.0227ZM114.268 19.6364L113.378 19.1792L113.377 19.1812L114.268 19.6364ZM117.234 16.4659L117.743 17.3265L117.747 17.3243L117.234 16.4659ZM125.802 16.1477L126.237 15.2474V15.2474L125.802 16.1477ZM128.518 18.4773L127.686 19.032L128.518 18.4773ZM129.62 22V23H130.672L130.619 21.9495L129.62 22ZM125.052 22L124.062 22.1462L124.189 23H125.052V22ZM124.029 19.8977L123.327 20.6098L123.337 20.6195L124.029 19.8977ZM119.915 19.7045L120.503 20.5138L120.505 20.5123L119.915 19.7045ZM118.609 27.1136L117.676 27.4757L117.679 27.4835L118.609 27.1136ZM119.915 28.8977L120.505 28.0899L119.915 28.8977ZM123.37 29.1705L122.917 28.279L122.91 28.2822L123.37 29.1705ZM124.472 28.1818L123.642 27.6238L123.64 27.6271L124.472 28.1818ZM125.052 26.6023V25.6023H124.189L124.062 26.4557L125.052 26.6023ZM129.62 26.6023L130.618 26.659L130.678 25.6023H129.62V26.6023ZM128.529 30.125L127.687 29.5849L127.686 29.5865L128.529 30.125ZM125.859 32.4886L125.411 31.5942L125.859 32.4886ZM121.824 32.3409C120.18 32.3409 118.824 31.9935 117.718 31.3426L116.704 33.0665C118.173 33.9308 119.893 34.3409 121.824 34.3409V32.3409ZM117.724 31.3462C116.609 30.6797 115.753 29.7611 115.148 28.5695L113.365 29.4759C114.138 30.9965 115.252 32.1991 116.698 33.0629L117.724 31.3462ZM115.15 28.5735C114.549 27.3779 114.234 25.9755 114.234 24.3409H112.234C112.234 26.2366 112.6 27.9554 113.363 29.4719L115.15 28.5735ZM114.234 24.3409C114.234 22.6828 114.553 21.2758 115.158 20.0916L113.377 19.1812C112.604 20.6939 112.234 22.4232 112.234 24.3409H114.234ZM115.157 20.0935C115.77 18.9007 116.629 17.9856 117.743 17.3265L116.724 15.6053C115.278 16.4613 114.159 17.6599 113.378 19.1792L115.157 20.0935ZM117.747 17.3243C118.845 16.6676 120.184 16.3182 121.802 16.3182V14.3182C119.889 14.3182 118.182 14.7339 116.721 15.6075L117.747 17.3243ZM121.802 16.3182C123.203 16.3182 124.383 16.5724 125.366 17.048L126.237 15.2474C124.933 14.617 123.446 14.3182 121.802 14.3182V16.3182ZM125.366 17.048C126.359 17.528 127.124 18.1891 127.686 19.032L129.35 17.9226C128.578 16.7654 127.532 15.8735 126.237 15.2474L125.366 17.048ZM127.686 19.032C128.24 19.8641 128.561 20.8593 128.621 22.0505L130.619 21.9495C130.542 20.4438 130.128 19.0904 129.35 17.9226L127.686 19.032ZM129.62 21H125.052V23H129.62V21ZM126.041 21.8538C125.885 20.7974 125.458 19.8822 124.721 19.1759L123.337 20.6195C123.706 20.9738 123.961 21.4602 124.062 22.1462L126.041 21.8538ZM124.731 19.1857C123.969 18.4342 122.986 18.0909 121.881 18.0909V20.0909C122.549 20.0909 122.998 20.2855 123.327 20.6098L124.731 19.1857ZM121.881 18.0909C120.937 18.0909 120.072 18.3525 119.326 18.8968L120.505 20.5123C120.88 20.2384 121.325 20.0909 121.881 20.0909V18.0909ZM119.328 18.8953C118.592 19.4293 118.057 20.184 117.692 21.093L119.548 21.8389C119.804 21.2024 120.132 20.7828 120.503 20.5138L119.328 18.8953ZM117.692 21.093C117.321 22.0155 117.154 23.0851 117.154 24.2727H119.154C119.154 23.2634 119.297 22.4618 119.548 21.8389L117.692 21.093ZM117.154 24.2727C117.154 25.4716 117.316 26.5487 117.676 27.4756L119.541 26.7516C119.295 26.118 119.154 25.3011 119.154 24.2727H117.154ZM117.679 27.4835C118.045 28.4018 118.584 29.164 119.326 29.7055L120.505 28.0899C120.126 27.8133 119.793 27.3861 119.538 26.7438L117.679 27.4835ZM119.326 29.7055C120.072 30.2498 120.937 30.5114 121.881 30.5114V28.5114C121.325 28.5114 120.88 28.3639 120.505 28.0899L119.326 29.7055ZM121.881 30.5114C122.575 30.5114 123.232 30.3677 123.829 30.0587L122.91 28.2822C122.629 28.4278 122.294 28.5114 121.881 28.5114V30.5114ZM123.823 30.0618C124.429 29.7539 124.925 29.306 125.304 28.7365L123.64 27.6271C123.444 27.9213 123.205 28.1324 122.917 28.2791L123.823 30.0618ZM125.302 28.7398C125.694 28.1574 125.932 27.4846 126.041 26.7488L124.062 26.4557C123.99 26.9472 123.842 27.3275 123.642 27.6238L125.302 28.7398ZM125.052 27.6023H129.62V25.6023H125.052V27.6023ZM128.621 26.5455C128.554 27.7258 128.236 28.7298 127.687 29.5849L129.371 30.6651C130.125 29.4899 130.534 28.1454 130.618 26.659L128.621 26.5455ZM127.686 29.5865C127.146 30.4323 126.397 31.1015 125.411 31.5942L126.306 33.3831C127.593 32.7394 128.624 31.8328 129.372 30.6635L127.686 29.5865ZM125.411 31.5942C124.441 32.0792 123.256 32.3409 121.824 32.3409V34.3409C123.499 34.3409 125.003 34.0344 126.306 33.3831L125.411 31.5942ZM137.406 27.9773L136.406 27.9753L136.4 30.6429L138.158 28.6361L137.406 27.9773ZM137.417 22.1705V21.1705H136.419L136.417 22.1685L137.417 22.1705ZM138.122 22.1705V23.1705H138.586L138.886 22.8154L138.122 22.1705ZM143.713 15.5455V14.5455H143.248L142.948 14.9005L143.713 15.5455ZM149.269 15.5455L150.029 16.1958L151.442 14.5455H149.269V15.5455ZM141.758 24.3182V25.3182H142.218L142.518 24.9686L141.758 24.3182ZM140.61 24.3182V23.3182H140.157L139.858 23.6593L140.61 24.3182ZM133.019 33H132.019V34H133.019V33ZM133.019 9.72727V8.72727H132.019V9.72727H133.019ZM137.86 9.72727H138.86V8.72727H137.86V9.72727ZM137.86 33V34H138.86V33H137.86ZM143.928 33L143.1 33.5598L143.397 34H143.928V33ZM138.792 25.3977L138.065 24.7115L137.515 25.294L137.963 25.9576L138.792 25.3977ZM142.019 21.9773L142.843 21.4107L142.142 20.3904L141.292 21.291L142.019 21.9773ZM149.599 33V34H151.5L150.423 32.4334L149.599 33ZM138.406 27.9792L138.417 22.1724L136.417 22.1685L136.406 27.9753L138.406 27.9792ZM137.417 23.1705H138.122V21.1705H137.417V23.1705ZM138.886 22.8154L144.477 16.1904L142.948 14.9005L137.357 21.5255L138.886 22.8154ZM143.713 16.5455H149.269V14.5455H143.713V16.5455ZM148.51 14.8951L140.998 23.6678L142.518 24.9686L150.029 16.1958L148.51 14.8951ZM141.758 23.3182H140.61V25.3182H141.758V23.3182ZM139.858 23.6593L136.653 27.3184L138.158 28.6361L141.363 24.977L139.858 23.6593ZM134.019 33V9.72727H132.019V33H134.019ZM133.019 10.7273H137.86V8.72727H133.019V10.7273ZM136.86 9.72727V33H138.86V9.72727H136.86ZM137.86 32H133.019V34H137.86V32ZM144.757 32.4402L139.621 24.8379L137.963 25.9576L143.1 33.5598L144.757 32.4402ZM139.519 26.084L142.747 22.6635L141.292 21.291L138.065 24.7115L139.519 26.084ZM141.195 22.5439L148.775 33.5666L150.423 32.4334L142.843 21.4107L141.195 22.5439ZM149.599 32H143.928V34H149.599V32ZM159.741 9.72727V8.72727H158.741V9.72727H159.741ZM165.81 9.72727L166.735 9.34801L166.481 8.72727H165.81V9.72727ZM172.219 25.3636L171.293 25.7429L171.548 26.3636H172.219V25.3636ZM172.491 25.3636V26.3636H173.162L173.417 25.7429L172.491 25.3636ZM178.901 9.72727V8.72727H178.23L177.975 9.34801L178.901 9.72727ZM184.969 9.72727H185.969V8.72727H184.969V9.72727ZM184.969 33V34H185.969V33H184.969ZM180.196 33H179.196V34H180.196V33ZM180.196 17.8523H181.196V16.8523H180.196V17.8523ZM180.003 17.8523V16.8523H179.326L179.075 17.4804L180.003 17.8523ZM173.98 32.8864V33.8864H174.657L174.908 33.2582L173.98 32.8864ZM170.73 32.8864L169.801 33.257L170.053 33.8864H170.73V32.8864ZM164.707 17.7955L165.636 17.4248L165.385 16.7955H164.707V17.7955ZM164.514 17.7955V16.7955H163.514V17.7955H164.514ZM164.514 33V34H165.514V33H164.514ZM159.741 33H158.741V34H159.741V33ZM159.741 10.7273H165.81V8.72727H159.741V10.7273ZM164.884 10.1065L171.293 25.7429L173.144 24.9844L166.735 9.34801L164.884 10.1065ZM172.219 26.3636H172.491V24.3636H172.219V26.3636ZM173.417 25.7429L179.826 10.1065L177.975 9.34801L171.566 24.9844L173.417 25.7429ZM178.901 10.7273H184.969V8.72727H178.901V10.7273ZM183.969 9.72727V33H185.969V9.72727H183.969ZM184.969 32H180.196V34H184.969V32ZM181.196 33V17.8523H179.196V33H181.196ZM180.196 16.8523H180.003V18.8523H180.196V16.8523ZM179.075 17.4804L173.052 32.5145L174.908 33.2582L180.931 18.2241L179.075 17.4804ZM173.98 31.8864H170.73V33.8864H173.98V31.8864ZM171.659 32.5157L165.636 17.4248L163.779 18.1661L169.801 33.257L171.659 32.5157ZM164.707 16.7955H164.514V18.7955H164.707V16.7955ZM163.514 17.7955V33H165.514V17.7955H163.514ZM164.514 32H159.741V34H164.514V32ZM160.741 33V9.72727H158.741V33H160.741ZM191.232 32.75L190.82 33.6612L190.826 33.6641L191.232 32.75ZM189.164 31.0114L188.324 31.5546L188.33 31.5642L189.164 31.0114ZM188.948 25.6818L188.068 25.2065L188.948 25.6818ZM190.402 24.0909L189.855 23.2541L190.402 24.0909ZM192.493 23.1818L192.242 22.2139L192.24 22.2145L192.493 23.1818ZM194.97 22.75L195.067 23.7454L195.074 23.7446L194.97 22.75ZM197.425 22.4545L197.57 23.4441L197.582 23.4422L197.425 22.4545ZM198.777 22.0227L198.217 21.1941L198.777 22.0227ZM198.516 19.4432L197.855 20.1934L197.861 20.1989L198.516 19.4432ZM194.527 19.4318L195.12 20.2375L195.127 20.2318L194.527 19.4318ZM193.505 20.8636L193.424 21.8604L194.238 21.9265L194.465 21.1417L193.505 20.8636ZM189.027 20.5L188.049 20.2905L187.811 21.4045L188.946 21.4967L189.027 20.5ZM190.368 17.75L191.125 18.4032L191.128 18.3996L190.368 17.75ZM192.948 15.9545L193.316 16.8844L193.319 16.883L192.948 15.9545ZM199.414 15.6591L199.165 16.6278L199.167 16.6283L199.414 15.6591ZM201.789 16.7159L201.219 17.5381L201.224 17.541L201.789 16.7159ZM203.436 18.5568L202.555 19.0288L202.557 19.0325L203.436 18.5568ZM204.039 33V34H205.039V33H204.039ZM199.448 33H198.448V34H199.448V33ZM199.448 30.5795H200.448V29.5795H199.448V30.5795ZM199.311 30.5795V29.5795H198.701L198.422 30.1225L199.311 30.5795ZM198.186 32.0227L198.843 32.7768L198.85 32.7708L198.186 32.0227ZM196.493 32.9886L196.819 33.9341L196.829 33.9306L196.493 32.9886ZM197.482 29.5682L197.939 30.4577L197.949 30.4526L197.482 29.5682ZM198.766 28.4091L197.924 27.8697L198.766 28.4091ZM199.232 24.9091H200.232V23.0664L198.687 24.0706L199.232 24.9091ZM198.607 25.1818L198.889 26.1412L198.898 26.1386L198.907 26.1358L198.607 25.1818ZM197.732 25.3977L197.915 26.3809L197.926 26.3788L197.937 26.3765L197.732 25.3977ZM196.755 25.5682L196.893 26.5586L196.904 26.557L196.915 26.5552L196.755 25.5682ZM195.868 25.6932L195.727 24.7032L195.723 24.7038L195.868 25.6932ZM194.38 26.0909L194.773 27.0101L194.38 26.0909ZM193.391 26.8295L194.181 27.4422L194.189 27.4327L193.391 26.8295ZM193.755 29.4773L193.165 30.2849L193.172 30.2902L193.179 30.2953L193.755 29.4773ZM194.209 32.3295C193.212 32.3295 192.361 32.1569 191.637 31.8359L190.826 33.6641C191.845 34.1159 192.979 34.3295 194.209 34.3295V32.3295ZM191.644 31.8388C190.937 31.519 190.396 31.0604 189.997 30.4586L188.33 31.5642C188.946 32.4927 189.785 33.1931 190.82 33.6612L191.644 31.8388ZM190.003 30.4681C189.631 29.8935 189.414 29.1321 189.414 28.125H187.414C187.414 29.4209 187.696 30.5838 188.324 31.5546L190.003 30.4681ZM189.414 28.125C189.414 27.2738 189.57 26.6335 189.828 26.1571L188.068 25.2065C187.613 26.0483 187.414 27.0368 187.414 28.125H189.414ZM189.828 26.1571C190.106 25.641 190.478 25.2362 190.95 24.9277L189.855 23.2541C189.099 23.7487 188.501 24.4045 188.068 25.2065L189.828 26.1571ZM190.95 24.9277C191.465 24.5909 192.06 24.329 192.747 24.1491L192.24 22.2145C191.365 22.4437 190.567 22.7879 189.855 23.2541L190.95 24.9277ZM192.744 24.1497C193.478 23.9592 194.252 23.824 195.066 23.7454L194.874 21.7546C193.962 21.8427 193.084 21.9953 192.242 22.2139L192.744 24.1497ZM195.074 23.7446C196.096 23.6379 196.929 23.5377 197.57 23.444L197.28 21.4651C196.678 21.5532 195.875 21.65 194.867 21.7554L195.074 23.7446ZM197.582 23.4422C198.244 23.3372 198.872 23.1659 199.337 22.8513L198.217 21.1941C198.122 21.2584 197.848 21.3749 197.268 21.4669L197.582 23.4422ZM199.337 22.8513C199.923 22.4556 200.198 21.8471 200.198 21.1818H198.198C198.198 21.2118 198.195 21.2279 198.194 21.2329C198.193 21.2373 198.193 21.2329 198.198 21.2232C198.2 21.2187 198.203 21.2138 198.207 21.2089C198.21 21.204 198.213 21.1999 198.216 21.1967C198.222 21.1898 198.224 21.1895 198.217 21.1941L199.337 22.8513ZM200.198 21.1818V21.1136H198.198V21.1818H200.198ZM200.198 21.1136C200.198 20.1664 199.888 19.3088 199.171 18.6875L197.861 20.1989C198.053 20.3654 198.198 20.6215 198.198 21.1136H200.198ZM199.177 18.693C198.488 18.0852 197.582 17.8523 196.607 17.8523V19.8523C197.283 19.8523 197.65 20.0133 197.855 20.1934L199.177 18.693ZM196.607 17.8523C195.595 17.8523 194.667 18.0767 193.927 18.6318L195.127 20.2318C195.417 20.0142 195.877 19.8523 196.607 19.8523V17.8523ZM193.935 18.6262C193.255 19.1262 192.776 19.7836 192.544 20.5856L194.465 21.1417C194.566 20.7922 194.769 20.4951 195.12 20.2375L193.935 18.6262ZM193.585 19.8669L189.108 19.5033L188.946 21.4967L193.424 21.8604L193.585 19.8669ZM190.005 20.7095C190.199 19.8024 190.575 19.0409 191.125 18.4032L189.611 17.0968C188.828 18.0045 188.31 19.0764 188.049 20.2905L190.005 20.7095ZM191.128 18.3996C191.679 17.7557 192.398 17.2474 193.316 16.8844L192.58 15.0247C191.391 15.4951 190.391 16.1836 189.608 17.1004L191.128 18.3996ZM193.319 16.883C194.239 16.5152 195.336 16.3182 196.63 16.3182V14.3182C195.136 14.3182 193.778 14.5454 192.576 15.0261L193.319 16.883ZM196.63 16.3182C197.52 16.3182 198.365 16.4225 199.165 16.6278L199.662 14.6904C198.69 14.4411 197.678 14.3182 196.63 14.3182V16.3182ZM199.167 16.6283C199.957 16.8291 200.637 17.1351 201.219 17.5381L202.358 15.8937C201.561 15.3421 200.658 14.9436 199.66 14.6899L199.167 16.6283ZM201.224 17.541C201.787 17.927 202.228 18.4191 202.555 19.0288L204.318 18.0848C203.841 17.1945 203.184 16.4594 202.354 15.8908L201.224 17.541ZM202.557 19.0325C202.863 19.5989 203.039 20.3178 203.039 21.2273H205.039C205.039 20.061 204.813 18.9995 204.316 18.0811L202.557 19.0325ZM203.039 21.2273V33H205.039V21.2273H203.039ZM204.039 32H199.448V34H204.039V32ZM200.448 33V30.5795H198.448V33H200.448ZM199.448 29.5795H199.311V31.5795H199.448V29.5795ZM198.422 30.1225C198.2 30.5551 197.902 30.9382 197.523 31.2747L198.85 32.7708C199.41 32.274 199.863 31.6949 200.201 31.0366L198.422 30.1225ZM197.53 31.2686C197.165 31.586 196.713 31.8486 196.158 32.0466L196.829 33.9306C197.591 33.6589 198.268 33.2776 198.843 32.7768L197.53 31.2686ZM196.167 32.0433C195.635 32.2269 194.987 32.3295 194.209 32.3295V34.3295C195.158 34.3295 196.034 34.2049 196.819 33.934L196.167 32.0433ZM195.595 30.9886C196.441 30.9886 197.231 30.8215 197.939 30.4576L197.025 28.6788C196.642 28.8755 196.174 28.9886 195.595 28.9886V30.9886ZM197.949 30.4526C198.636 30.09 199.198 29.5892 199.608 28.9485L197.924 27.8697C197.713 28.1987 197.419 28.4706 197.015 28.6838L197.949 30.4526ZM199.608 28.9485C200.029 28.2919 200.232 27.5531 200.232 26.7614H198.232C198.232 27.1969 198.124 27.5565 197.924 27.8697L199.608 28.9485ZM200.232 26.7614V24.9091H198.232V26.7614H200.232ZM198.687 24.0706C198.641 24.1007 198.527 24.1588 198.307 24.2278L198.907 26.1358C199.217 26.0382 199.52 25.9145 199.777 25.7475L198.687 24.0706ZM198.325 24.2225C198.098 24.2892 197.833 24.355 197.527 24.4189L197.937 26.3765C198.283 26.3041 198.601 26.226 198.889 26.1412L198.325 24.2225ZM197.549 24.4146C197.231 24.4738 196.912 24.5294 196.594 24.5812L196.915 26.5552C197.248 26.5009 197.582 26.4428 197.915 26.3809L197.549 24.4146ZM196.616 24.5778C196.29 24.6233 195.993 24.6652 195.727 24.7032L196.01 26.6831C196.273 26.6454 196.568 26.6039 196.893 26.5586L196.616 24.5778ZM195.723 24.7038C195.089 24.7967 194.506 24.9488 193.986 25.1718L194.773 27.0101C195.102 26.8694 195.511 26.7563 196.013 26.6826L195.723 24.7038ZM193.986 25.1718C193.431 25.4093 192.951 25.7535 192.593 26.2264L194.189 27.4327C194.301 27.2844 194.479 27.1361 194.773 27.0101L193.986 25.1718ZM192.6 26.217C192.206 26.7263 192.039 27.3323 192.039 27.9659H194.039C194.039 27.6905 194.106 27.5389 194.181 27.4421L192.6 26.217ZM192.039 27.9659C192.039 28.9017 192.397 29.7244 193.165 30.2849L194.344 28.6696C194.157 28.5332 194.039 28.3483 194.039 27.9659H192.039ZM193.179 30.2953C193.871 30.7816 194.7 30.9886 195.595 30.9886V28.9886C195.007 28.9886 194.608 28.8548 194.33 28.6592L193.179 30.2953ZM222.617 20.5227L222.678 21.5208L223.749 21.455L223.608 20.3918L222.617 20.5227ZM218.185 20.7955L217.205 20.9916L217.376 21.8472L218.247 21.7936L218.185 20.7955ZM217.697 19.7727L216.918 20.3998L216.925 20.4091L217.697 19.7727ZM216.708 19.0341L216.281 19.9385L216.292 19.9433L216.302 19.9479L216.708 19.0341ZM213.367 19.2273L213.883 20.0837L213.893 20.0781L213.367 19.2273ZM213.094 21.5341L212.441 22.2909V22.2909L213.094 21.5341ZM214.81 22.2273L214.6 23.205L214.613 23.2076L214.81 22.2273ZM217.969 22.8636L218.17 21.8841L218.167 21.8833L217.969 22.8636ZM221.765 24.5455L221.085 25.2787L221.765 24.5455ZM222.003 30.6023L221.215 29.9869L221.212 29.9912L222.003 30.6023ZM219.253 32.625L219.634 33.5497L219.637 33.5484L219.253 32.625ZM209.719 31.8977L209.14 32.7127L209.145 32.7163L209.719 31.8977ZM207.322 27.9432L207.269 26.9446L206.179 27.0018L206.331 28.0827L207.322 27.9432ZM212.083 27.6932L213.063 27.493L212.89 26.6494L212.031 26.6946L212.083 27.6932ZM213.128 29.3068L212.571 30.1372L212.579 30.1424L213.128 29.3068ZM217.299 29.3636L217.833 30.2088L217.837 30.2068L217.299 29.3636ZM218.094 28.0795L219.094 28.094L219.094 28.0782L219.094 28.0623L218.094 28.0795ZM217.538 27L216.917 27.7841L216.927 27.792L217.538 27ZM215.856 26.3409L216.052 25.3603L216.051 25.3602L215.856 26.3409ZM212.833 25.7386L212.637 26.7192L212.638 26.7194L212.833 25.7386ZM209.026 23.9659L208.313 24.6666L208.316 24.6698L209.026 23.9659ZM208.697 17.8523L207.899 17.2487L207.896 17.2535L208.697 17.8523ZM211.276 15.9773L210.909 15.0471L210.907 15.0479L211.276 15.9773ZM220.39 16.7159L219.797 17.5211L219.799 17.5228L220.39 16.7159ZM222.556 19.5246L218.124 19.7973L218.247 21.7936L222.678 21.5208L222.556 19.5246ZM219.166 20.5993C219.057 20.0559 218.821 19.5644 218.468 19.1363L216.925 20.4091C217.072 20.5871 217.162 20.7774 217.205 20.9916L219.166 20.5993ZM218.476 19.1457C218.114 18.6967 217.65 18.3587 217.114 18.1203L216.302 19.9479C216.584 20.0732 216.779 20.2275 216.918 20.3997L218.476 19.1457ZM217.135 18.1297C216.569 17.8631 215.935 17.75 215.265 17.75V19.75C215.715 19.75 216.044 19.8263 216.281 19.9385L217.135 18.1297ZM215.265 17.75C214.373 17.75 213.548 17.9399 212.842 18.3765L213.893 20.0781C214.216 19.8783 214.656 19.75 215.265 19.75V17.75ZM212.851 18.3709C212.089 18.8301 211.594 19.5456 211.594 20.4773H213.594C213.594 20.3635 213.615 20.2457 213.883 20.0837L212.851 18.3709ZM211.594 20.4773C211.594 21.2029 211.902 21.8254 212.441 22.2909L213.748 20.7773C213.62 20.667 213.594 20.585 213.594 20.4773H211.594ZM212.441 22.2909C212.97 22.7479 213.747 23.0215 214.6 23.2049L215.02 21.2496C214.253 21.0846 213.885 20.896 213.748 20.7773L212.441 22.2909ZM214.613 23.2076L217.772 23.8439L218.167 21.8833L215.008 21.247L214.613 23.2076ZM217.768 23.8432C219.373 24.1727 220.438 24.6792 221.085 25.2787L222.445 23.8122C221.425 22.8662 219.96 22.2515 218.17 21.8841L217.768 23.8432ZM221.085 25.2787C221.691 25.8409 222.015 26.5787 222.015 27.5909H224.015C224.015 26.0879 223.505 24.7954 222.445 23.8122L221.085 25.2787ZM222.015 27.5909C222.015 28.5224 221.746 29.3072 221.215 29.9869L222.792 31.2176C223.609 30.1701 224.015 28.9473 224.015 27.5909H222.015ZM221.212 29.9912C220.667 30.6965 219.901 31.2729 218.87 31.7016L219.637 33.5484C220.939 33.0074 222.006 32.2353 222.795 31.2133L221.212 29.9912ZM218.873 31.7003C217.857 32.1186 216.653 32.3409 215.242 32.3409V34.3409C216.861 34.3409 218.332 34.0859 219.634 33.5497L218.873 31.7003ZM215.242 32.3409C213.061 32.3409 211.444 31.886 210.294 31.0791L209.145 32.7163C210.737 33.8337 212.802 34.3409 215.242 34.3409V32.3409ZM210.299 31.0828C209.161 30.2733 208.509 29.2001 208.312 27.8037L206.331 28.0827C206.604 30.0195 207.551 31.5827 209.14 32.7127L210.299 31.0828ZM207.374 28.9418L212.135 28.6918L212.031 26.6946L207.269 26.9446L207.374 28.9418ZM211.103 27.8933C211.295 28.8327 211.782 29.6071 212.571 30.1371L213.686 28.4765C213.369 28.2641 213.159 27.9628 213.063 27.493L211.103 27.8933ZM212.579 30.1424C213.338 30.6415 214.253 30.8523 215.253 30.8523V28.8523C214.526 28.8523 214.025 28.6994 213.678 28.4713L212.579 30.1424ZM215.253 30.8523C216.22 30.8523 217.107 30.668 217.833 30.2088L216.764 28.5184C216.46 28.7108 215.984 28.8523 215.253 28.8523V30.8523ZM217.837 30.2068C218.582 29.7314 219.081 29.0195 219.094 28.094L217.094 28.0651C217.093 28.185 217.061 28.3292 216.761 28.5205L217.837 30.2068ZM219.094 28.0623C219.081 27.3035 218.74 26.6643 218.148 26.208L216.927 27.792C217.062 27.8963 217.092 27.9768 217.094 28.0968L219.094 28.0623ZM218.158 26.216C217.614 25.7852 216.874 25.5247 216.052 25.3603L215.66 27.3215C216.353 27.4601 216.734 27.639 216.917 27.784L218.158 26.216ZM216.051 25.3602L213.028 24.7579L212.638 26.7194L215.66 27.3216L216.051 25.3602ZM213.029 24.7581C211.433 24.4389 210.378 23.9098 209.736 23.262L208.316 24.6698C209.341 25.7039 210.824 26.3566 212.637 26.7192L213.029 24.7581ZM209.74 23.2653C209.118 22.6319 208.788 21.8212 208.788 20.75H206.788C206.788 22.2848 207.283 23.6181 208.313 24.6666L209.74 23.2653ZM208.788 20.75C208.788 19.8201 209.035 19.0702 209.497 18.4511L207.896 17.2535C207.146 18.2556 206.788 19.4374 206.788 20.75H208.788ZM209.494 18.4558C209.98 17.8142 210.68 17.2902 211.645 16.9066L210.907 15.0479C209.66 15.5431 208.641 16.2692 207.899 17.2487L209.494 18.4558ZM211.643 16.9075C212.615 16.524 213.789 16.3182 215.185 16.3182V14.3182C213.597 14.3182 212.165 14.5517 210.909 15.0471L211.643 16.9075ZM215.185 16.3182C217.26 16.3182 218.76 16.7578 219.797 17.5211L220.983 15.9107C219.489 14.8104 217.52 14.3182 215.185 14.3182V16.3182ZM219.799 17.5228C220.845 18.2885 221.448 19.3099 221.626 20.6537L223.608 20.3918C223.362 18.5234 222.48 17.0069 220.981 15.909L219.799 17.5228ZM235.647 15.5455H236.647V14.5455H235.647V15.5455ZM235.647 19.1818V20.1818H236.647V19.1818H235.647ZM225.136 19.1818H224.136V20.1818H225.136V19.1818ZM225.136 15.5455V14.5455H224.136V15.5455H225.136ZM227.522 11.3636V10.3636H226.522V11.3636H227.522ZM232.363 11.3636H233.363V10.3636H232.363V11.3636ZM232.568 28.6818L231.69 29.1607L231.696 29.1721L232.568 28.6818ZM233.136 29.1932L232.759 30.1197L232.769 30.1236L233.136 29.1932ZM234.681 29.2841L234.846 30.2705L234.862 30.2678L234.877 30.2647L234.681 29.2841ZM235.204 29.1818L236.182 28.975L235.98 28.0188L235.02 28.1989L235.204 29.1818ZM235.965 32.7841L236.264 33.7386L237.132 33.4673L236.944 32.5773L235.965 32.7841ZM234.943 33.0455L234.724 32.0697L234.716 32.0715L234.708 32.0734L234.943 33.0455ZM233.34 33.2386L233.304 32.2393L233.301 32.2394L233.34 33.2386ZM230.272 32.7727L229.894 33.6984L229.897 33.6995L230.272 32.7727ZM228.238 31.1136L229.078 30.5707L228.238 31.1136ZM227.522 28.2727L228.522 28.2794V28.2727H227.522ZM234.647 15.5455V19.1818H236.647V15.5455H234.647ZM235.647 18.1818H225.136V20.1818H235.647V18.1818ZM226.136 19.1818V15.5455H224.136V19.1818H226.136ZM225.136 16.5455H235.647V14.5455H225.136V16.5455ZM227.522 12.3636H232.363V10.3636H227.522V12.3636ZM231.363 11.3636V27.6364H233.363V11.3636H231.363ZM231.363 27.6364C231.363 28.1644 231.44 28.7032 231.69 29.1607L233.446 28.203C233.422 28.1605 233.363 28.0023 233.363 27.6364H231.363ZM231.696 29.1721C231.936 29.5984 232.294 29.9304 232.759 30.1196L233.512 28.2667C233.493 28.259 233.472 28.2501 233.439 28.1916L231.696 29.1721ZM232.769 30.1236C233.158 30.2767 233.574 30.3409 233.999 30.3409V28.3409C233.773 28.3409 233.614 28.3066 233.502 28.2628L232.769 30.1236ZM233.999 30.3409C234.283 30.3409 234.565 30.3173 234.846 30.2705L234.517 28.2977C234.343 28.3266 234.171 28.3409 233.999 28.3409V30.3409ZM234.877 30.2647C235.103 30.2194 235.273 30.1863 235.388 30.1647L235.02 28.1989C234.892 28.2228 234.714 28.2578 234.485 28.3035L234.877 30.2647ZM234.226 29.3886L234.987 32.9909L236.944 32.5773L236.182 28.975L234.226 29.3886ZM235.667 31.8296C235.463 31.8932 235.154 31.9734 234.724 32.0697L235.161 34.0212C235.61 33.9206 235.982 33.8265 236.264 33.7386L235.667 31.8296ZM234.708 32.0734C234.353 32.159 233.89 32.2181 233.304 32.2393L233.376 34.238C234.048 34.2137 234.653 34.1441 235.177 34.0175L234.708 32.0734ZM233.301 32.2394C232.244 32.2806 231.368 32.1379 230.648 31.8459L229.897 33.6995C230.934 34.1197 232.103 34.2876 233.379 34.2379L233.301 32.2394ZM230.65 31.8471C229.958 31.564 229.445 31.1394 229.078 30.5707L227.398 31.6565C228 32.5879 228.844 33.2694 229.894 33.6984L230.65 31.8471ZM229.078 30.5707C228.725 30.0247 228.515 29.2827 228.522 28.2794L226.522 28.2661C226.514 29.5506 226.782 30.7026 227.398 31.6565L229.078 30.5707ZM228.522 28.2727V11.3636H226.522V28.2727H228.522ZM242.231 32.25L241.736 33.1186L241.742 33.122L242.231 32.25ZM239.254 29.1364L238.366 29.5955L238.367 29.5976L239.254 29.1364ZM239.254 19.625L238.365 19.1679L239.254 19.625ZM242.197 16.4545L241.686 15.5952L241.683 15.5966L242.197 16.4545ZM249.89 15.875L249.54 16.8117L249.549 16.8148L249.89 15.875ZM252.504 17.5227L251.8 18.2335L251.804 18.237L252.504 17.5227ZM254.254 20.2955L253.317 20.6459L253.318 20.648L254.254 20.2955ZM254.879 25.5114V26.5114H255.879V25.5114H254.879ZM240.14 25.5114H239.14V26.5114H240.14V25.5114ZM240.14 22.5114V21.5114H239.14V22.5114H240.14ZM250.322 22.5114V23.5114H251.322V22.5114H250.322ZM249.868 20.6591L248.996 21.1499L249.868 20.6591ZM248.606 19.3977L248.101 20.2606L248.108 20.2649L248.115 20.269L248.606 19.3977ZM244.799 19.4432L245.311 20.3027L245.314 20.3007L244.799 19.4432ZM243.481 20.7955L244.351 21.2891L244.354 21.2841L243.481 20.7955ZM242.993 22.6705L241.993 22.6595V22.6705H242.993ZM243.47 27.7614L242.578 28.2129L242.582 28.2214L243.47 27.7614ZM248.424 29.5L248.103 28.5529L248.424 29.5ZM249.572 28.8182L248.883 28.094L249.572 28.8182ZM250.299 27.7045L250.365 26.7067L249.627 26.658L249.364 27.3499L250.299 27.7045ZM254.777 28L255.755 28.2067L255.994 27.0781L254.843 27.0022L254.777 28ZM253.379 30.8182L252.627 30.1587L252.627 30.1592L253.379 30.8182ZM250.674 32.6818L251.046 33.6103L251.049 33.609L250.674 32.6818ZM246.868 32.3409C245.208 32.3409 243.838 32.0055 242.721 31.378L241.742 33.122C243.215 33.9491 244.936 34.3409 246.868 34.3409V32.3409ZM242.727 31.3814C241.609 30.7438 240.751 29.8489 240.141 28.6752L238.367 29.5976C239.151 31.1056 240.277 32.2865 241.736 33.1186L242.727 31.3814ZM240.142 28.6772C239.533 27.4978 239.209 26.067 239.209 24.3523H237.209C237.209 26.3193 237.581 28.078 238.366 29.5955L240.142 28.6772ZM239.209 24.3523C239.209 22.6877 239.531 21.2737 240.143 20.0821L238.365 19.1679C237.583 20.6884 237.209 22.426 237.209 24.3523H239.209ZM240.143 20.0821C240.758 18.8862 241.612 17.9708 242.711 17.3125L241.683 15.5966C240.252 16.4535 239.144 17.6517 238.365 19.1679L240.143 20.0821ZM242.709 17.3138C243.804 16.6619 245.114 16.3182 246.674 16.3182V14.3182C244.811 14.3182 243.136 14.732 241.686 15.5953L242.709 17.3138ZM246.674 16.3182C247.717 16.3182 248.669 16.4858 249.54 16.8116L250.241 14.9384C249.127 14.5218 247.935 14.3182 246.674 14.3182V16.3182ZM249.549 16.8148C250.415 17.13 251.163 17.6021 251.801 18.2334L253.207 16.812C252.36 15.9736 251.365 15.3472 250.232 14.9352L249.549 16.8148ZM251.804 18.237C252.436 18.8566 252.945 19.6512 253.317 20.6459L255.191 19.945C254.729 18.7124 254.071 17.6586 253.204 16.8084L251.804 18.237ZM253.318 20.648C253.683 21.6166 253.879 22.7878 253.879 24.1818H255.879C255.879 22.6062 255.658 21.1864 255.19 19.9429L253.318 20.648ZM253.879 24.1818V25.5114H255.879V24.1818H253.879ZM254.879 24.5114H240.14V26.5114H254.879V24.5114ZM241.14 25.5114V22.5114H239.14V25.5114H241.14ZM240.14 23.5114H250.322V21.5114H240.14V23.5114ZM251.322 22.5114C251.322 21.665 251.137 20.8744 250.739 20.1682L248.996 21.1499C249.205 21.5195 249.322 21.9638 249.322 22.5114H251.322ZM250.739 20.1682C250.346 19.4712 249.794 18.9192 249.097 18.5265L248.115 20.269C248.494 20.4823 248.783 20.7712 248.996 21.1499L250.739 20.1682ZM249.112 18.5348C248.407 18.122 247.61 17.9318 246.754 17.9318V19.9318C247.307 19.9318 247.745 20.0523 248.101 20.2606L249.112 18.5348ZM246.754 17.9318C245.858 17.9318 245.025 18.1416 244.285 18.5857L245.314 20.3007C245.71 20.0629 246.18 19.9318 246.754 19.9318V17.9318ZM244.288 18.5836C243.577 19.0066 243.013 19.5852 242.609 20.3069L244.354 21.2841C244.586 20.8694 244.901 20.5464 245.311 20.3027L244.288 18.5836ZM242.612 20.3018C242.204 21.0199 242.002 21.8129 241.993 22.6595L243.993 22.6814C243.998 22.1492 244.122 21.6922 244.351 21.2891L242.612 20.3018ZM241.993 22.6705V25.5227H243.993V22.6705H241.993ZM241.993 25.5227C241.993 26.5084 242.174 27.416 242.578 28.2129L244.362 27.3099C244.129 26.8491 243.993 26.2643 243.993 25.5227H241.993ZM242.582 28.2214C242.992 29.0131 243.582 29.6419 244.345 30.0821L245.345 28.3497C244.926 28.1081 244.599 27.7672 244.358 27.3014L242.582 28.2214ZM244.345 30.0821C245.114 30.5259 245.994 30.7273 246.947 30.7273V28.7273C246.279 28.7273 245.757 28.5878 245.345 28.3497L244.345 30.0821ZM246.947 30.7273C247.579 30.7273 248.182 30.6382 248.745 30.4471L248.103 28.5529C247.773 28.6649 247.391 28.7273 246.947 28.7273V30.7273ZM248.745 30.4471C249.32 30.2524 249.831 29.9528 250.262 29.5423L248.883 28.094C248.677 28.2896 248.423 28.4445 248.103 28.5529L248.745 30.4471ZM250.262 29.5423C250.696 29.129 251.018 28.6286 251.234 28.0592L249.364 27.3499C249.247 27.6592 249.085 27.9013 248.883 28.094L250.262 29.5423ZM250.234 28.7024L254.711 28.9978L254.843 27.0022L250.365 26.7067L250.234 28.7024ZM253.798 27.7933C253.605 28.7063 253.215 29.4885 252.627 30.1587L254.131 31.4777C254.952 30.5418 255.493 29.4452 255.755 28.2067L253.798 27.7933ZM252.627 30.1592C252.046 30.8226 251.279 31.3587 250.3 31.7547L251.049 33.609C252.281 33.111 253.318 32.4046 254.131 31.4772L252.627 30.1592ZM250.303 31.7533C249.345 32.1365 248.207 32.3409 246.868 32.3409V34.3409C248.407 34.3409 249.807 34.106 251.046 33.6103L250.303 31.7533ZM258.338 33H257.338V34H258.338V33ZM258.338 15.5455V14.5455H257.338V15.5455H258.338ZM263.031 15.5455H264.031V14.5455H263.031V15.5455ZM263.031 18.5909H262.031V19.5909H263.031V18.5909ZM263.213 18.5909V19.5909H263.962L264.173 18.8727L263.213 18.5909ZM264.815 16.1364L265.409 16.9412L265.414 16.9373L264.815 16.1364ZM268.19 15.3409L268.298 14.3467V14.3467L268.19 15.3409ZM268.929 15.4659H269.929V14.6851L269.172 14.4958L268.929 15.4659ZM268.929 19.7614L268.642 20.7192L269.929 21.1054V19.7614H268.929ZM264.974 19.9659L265.455 20.8429L265.459 20.8406L264.974 19.9659ZM263.656 21.2386L262.798 20.7259L262.792 20.7348L263.656 21.2386ZM263.179 33V34H264.179V33H263.179ZM259.338 33V15.5455H257.338V33H259.338ZM258.338 16.5455H263.031V14.5455H258.338V16.5455ZM262.031 15.5455V18.5909H264.031V15.5455H262.031ZM263.031 19.5909H263.213V17.5909H263.031V19.5909ZM264.173 18.8727C264.443 17.9535 264.869 17.339 265.409 16.9412L264.222 15.3315C263.261 16.0398 262.62 17.0617 262.254 18.3091L264.173 18.8727ZM265.414 16.9373C265.983 16.5119 266.635 16.2955 267.406 16.2955V14.2955C266.223 14.2955 265.147 14.6397 264.217 15.3354L265.414 16.9373ZM267.406 16.2955C267.608 16.2955 267.833 16.3081 268.083 16.3351L268.298 14.3467C267.987 14.3131 267.69 14.2955 267.406 14.2955V16.2955ZM268.083 16.3351C268.33 16.3618 268.529 16.3968 268.686 16.4361L269.172 14.4958C268.904 14.429 268.611 14.3806 268.298 14.3467L268.083 16.3351ZM267.929 15.4659V19.7614H269.929V15.4659H267.929ZM269.216 18.8035C268.915 18.713 268.54 18.644 268.117 18.5882L267.855 20.5709C268.235 20.6211 268.489 20.6734 268.642 20.7192L269.216 18.8035ZM268.117 18.5882C267.681 18.5306 267.269 18.5 266.884 18.5V20.5C267.165 20.5 267.488 20.5225 267.855 20.5709L268.117 18.5882ZM266.884 18.5C266.021 18.5 265.215 18.6896 264.49 19.0912L265.459 20.8406C265.855 20.621 266.322 20.5 266.884 20.5V18.5ZM264.494 19.0889C263.783 19.4782 263.214 20.0287 262.798 20.7259L264.515 21.7514C264.75 21.3576 265.059 21.0597 265.455 20.8429L264.494 19.0889ZM262.792 20.7348C262.374 21.4519 262.179 22.2589 262.179 23.125H264.179C264.179 22.5669 264.302 22.1162 264.52 21.7425L262.792 20.7348ZM262.179 23.125V33H264.179V23.125H262.179ZM263.179 32H258.338V34H263.179V32Z" fill="black" mask="url(#path-1-outside-1_202_500)"/>
    </g>
    <g clip-path="url(#clip0_202_500)">
    <rect width="3" height="3" transform="translate(35 20)" fill="#15A3E5"/>
    <path d="M36.5 22.75C37.1904 22.75 37.75 22.1904 37.75 21.5C37.75 20.8096 37.1904 20.25 36.5 20.25C35.8096 20.25 35.25 20.8096 35.25 21.5C35.25 22.1904 35.8096 22.75 36.5 22.75Z" stroke="#1E1E1E" stroke-width="4" stroke-linecap="round" stroke-linejoin="round"/>
    </g>
    <g filter="url(#filter1_d_202_500)">
    <path d="M39.5833 8.875H10.4167C8.11548 8.875 6.25 10.0316 6.25 11.4583V29.5417C6.25 30.9684 8.11548 32.125 10.4167 32.125H39.5833C41.8845 32.125 43.75 30.9684 43.75 29.5417V11.4583C43.75 10.0316 41.8845 8.875 39.5833 8.875Z" stroke="#0BA5EC" stroke-width="4" stroke-linecap="round" stroke-linejoin="round"/>
    </g>
    <rect x="0.5" y="3.5" width="39" height="35" stroke="black"/>
    <path d="M26.9582 22.5H6.6665V19.5H26.9582L17.6248 11.1L19.9998 9L33.3332 21L19.9998 33L17.6248 30.9L26.9582 22.5Z" fill="#007AFF"/>
    <g clip-path="url(#clip1_202_500)">
    <rect width="3" height="3" transform="translate(35 20)" fill="#15A3E5"/>
    <path d="M36.5 22.75C37.1904 22.75 37.75 22.1904 37.75 21.5C37.75 20.8096 37.1904 20.25 36.5 20.25C35.8096 20.25 35.25 20.8096 35.25 21.5C35.25 22.1904 35.8096 22.75 36.5 22.75Z" stroke="#1E1E1E" stroke-width="4" stroke-linecap="round" stroke-linejoin="round"/>
    </g>
    <g filter="url(#filter2_d_202_500)">
    <path d="M39.5833 8.875H10.4167C8.11548 8.875 6.25 10.0316 6.25 11.4583V29.5417C6.25 30.9684 8.11548 32.125 10.4167 32.125H39.5833C41.8845 32.125 43.75 30.9684 43.75 29.5417V11.4583C43.75 10.0316 41.8845 8.875 39.5833 8.875Z" stroke="#0BA5EC" stroke-width="4" stroke-linecap="round" stroke-linejoin="round"/>
    </g>
    <rect x="0.5" y="3.5" width="39" height="35" stroke="black"/>
    <path d="M26.9582 22.5H6.6665V19.5H26.9582L17.6248 11.1L19.9998 9L33.3332 21L19.9998 33L17.6248 30.9L26.9582 22.5Z" fill="#007AFF"/>
    <g clip-path="url(#clip2_202_500)">
    <rect width="3" height="3" transform="translate(35 20)" fill="#15A3E5"/>
    <path d="M36.5 22.75C37.1904 22.75 37.75 22.1904 37.75 21.5C37.75 20.8096 37.1904 20.25 36.5 20.25C35.8096 20.25 35.25 20.8096 35.25 21.5C35.25 22.1904 35.8096 22.75 36.5 22.75Z" stroke="#1E1E1E" stroke-width="4" stroke-linecap="round" stroke-linejoin="round"/>
    </g>
    <g filter="url(#filter3_d_202_500)">
    <path d="M39.5833 8.875H10.4167C8.11548 8.875 6.25 10.0316 6.25 11.4583V29.5417C6.25 30.9684 8.11548 32.125 10.4167 32.125H39.5833C41.8845 32.125 43.75 30.9684 43.75 29.5417V11.4583C43.75 10.0316 41.8845 8.875 39.5833 8.875Z" stroke="#0BA5EC" stroke-width="4" stroke-linecap="round" stroke-linejoin="round"/>
    </g>
    <g clip-path="url(#clip3_202_500)">
    <rect width="3" height="3" transform="translate(35 20)" fill="#15A3E5"/>
    <path d="M36.5 22.75C37.1904 22.75 37.75 22.1904 37.75 21.5C37.75 20.8096 37.1904 20.25 36.5 20.25C35.8096 20.25 35.25 20.8096 35.25 21.5C35.25 22.1904 35.8096 22.75 36.5 22.75Z" stroke="#1E1E1E" stroke-width="4" stroke-linecap="round" stroke-linejoin="round"/>
    </g>
    <defs>
    <filter id="filter0_d_202_500" x="60.5229" y="9.72729" width="212.406" height="31.6136" filterUnits="userSpaceOnUse" color-interpolation-filters="sRGB">
    <feFlood flood-opacity="0" result="BackgroundImageFix"/>
    <feColorMatrix in="SourceAlpha" type="matrix" values="0 0 0 0 0 0 0 0 0 0 0 0 0 0 0 0 0 0 127 0" result="hardAlpha"/>
    <feOffset dy="4"/>
    <feGaussianBlur stdDeviation="2"/>
    <feComposite in2="hardAlpha" operator="out"/>
    <feColorMatrix type="matrix" values="0 0 0 0 0 0 0 0 0 0 0 0 0 0 0 0 0 0 0.25 0"/>
    <feBlend mode="normal" in2="BackgroundImageFix" result="effect1_dropShadow_202_500"/>
    <feBlend mode="normal" in="SourceGraphic" in2="effect1_dropShadow_202_500" result="shape"/>
    </filter>
    <filter id="filter1_d_202_500" x="-4" y="5" width="58" height="39" filterUnits="userSpaceOnUse" color-interpolation-filters="sRGB">
    <feFlood flood-opacity="0" result="BackgroundImageFix"/>
    <feColorMatrix in="SourceAlpha" type="matrix" values="0 0 0 0 0 0 0 0 0 0 0 0 0 0 0 0 0 0 127 0" result="hardAlpha"/>
    <feOffset dy="4"/>
    <feGaussianBlur stdDeviation="2"/>
    <feComposite in2="hardAlpha" operator="out"/>
    <feColorMatrix type="matrix" values="0 0 0 0 0 0 0 0 0 0 0 0 0 0 0 0 0 0 0.25 0"/>
    <feBlend mode="normal" in2="BackgroundImageFix" result="effect1_dropShadow_202_500"/>
    <feBlend mode="normal" in="SourceGraphic" in2="effect1_dropShadow_202_500" result="shape"/>
    </filter>
    <filter id="filter2_d_202_500" x="-4" y="5" width="58" height="39" filterUnits="userSpaceOnUse" color-interpolation-filters="sRGB">
    <feFlood flood-opacity="0" result="BackgroundImageFix"/>
    <feColorMatrix in="SourceAlpha" type="matrix" values="0 0 0 0 0 0 0 0 0 0 0 0 0 0 0 0 0 0 127 0" result="hardAlpha"/>
    <feOffset dy="4"/>
    <feGaussianBlur stdDeviation="2"/>
    <feComposite in2="hardAlpha" operator="out"/>
    <feColorMatrix type="matrix" values="0 0 0 0 0 0 0 0 0 0 0 0 0 0 0 0 0 0 0.25 0"/>
    <feBlend mode="normal" in2="BackgroundImageFix" result="effect1_dropShadow_202_500"/>
    <feBlend mode="normal" in="SourceGraphic" in2="effect1_dropShadow_202_500" result="shape"/>
    </filter>
    <filter id="filter3_d_202_500" x="-4" y="5" width="58" height="39" filterUnits="userSpaceOnUse" color-interpolation-filters="sRGB">
    <feFlood flood-opacity="0" result="BackgroundImageFix"/>
    <feColorMatrix in="SourceAlpha" type="matrix" values="0 0 0 0 0 0 0 0 0 0 0 0 0 0 0 0 0 0 127 0" result="hardAlpha"/>
    <feOffset dy="4"/>
    <feGaussianBlur stdDeviation="2"/>
    <feComposite in2="hardAlpha" operator="out"/>
    <feColorMatrix type="matrix" values="0 0 0 0 0 0 0 0 0 0 0 0 0 0 0 0 0 0 0.25 0"/>
    <feBlend mode="normal" in2="BackgroundImageFix" result="effect1_dropShadow_202_500"/>
    <feBlend mode="normal" in="SourceGraphic" in2="effect1_dropShadow_202_500" result="shape"/>
    </filter>
    <clipPath id="clip0_202_500">
    <rect width="3" height="3" fill="white" transform="translate(35 20)"/>
    </clipPath>
    <clipPath id="clip1_202_500">
    <rect width="3" height="3" fill="white" transform="translate(35 20)"/>
    </clipPath>
    <clipPath id="clip2_202_500">
    <rect width="3" height="3" fill="white" transform="translate(35 20)"/>
    </clipPath>
    <clipPath id="clip3_202_500">
    <rect width="3" height="3" fill="white" transform="translate(35 20)"/>
    </clipPath>
    </defs>
    </svg>
    